# xmcd
#
# Track frame offsets:
#	150
#	14147
#	23118
#	35680
#	48816
#	58052
#	73092
#	83300
#	95623
#	111466
#	123833
#	136226
#	149090
#	159916
#	168732
#	180492
#	192864
#	206466
#	221157
#	239490
#
# Disc length: 3374 seconds
#
# Revision: 0
# Processed by: cddbd v1.5.2PL0 Copyright (c) Steve Scherf et al.
# Submitted via: audiograbber 1.83.01
#
DISCID=250d2c14
DTITLE=Various Artist - The Original Crooners Album
DYEAR=2007
DGENRE=Easy Listening
TTITLE0=Frankie Vaughan - Music To Watch Girls By
TTITLE1=Frank Sinatra - They Can't Take That Away From Me
TTITLE2=Al Martino - Spanish Eyes
TTITLE3=Al Bowily - When You Wear Your Sunday Blue
TTITLE4=Booby Vee - My Love Loves Me
TTITLE5=Chet Baker  - I Fall In Love Too Easily
TTITLE6=Dean Martin  - Memories Are Made Of This
TTITLE7=Donald Peers - You Are My True Love
TTITLE8=Fred Astaire  - A Foggy Day
TTITLE9=Mel Torme - It's D'Lovely
TTITLE10=Nat King Cole - Pretend
TTITLE11=Sammy Davis Jr - What Can I Do?
TTITLE12=Vic Damone - Laura
TTITLE13=The Jordanaires - Don't Be Cruel
TTITLE14=Danny Williams - Moon River
TTITLE15=Matt Monro - Portrait Of My Love
TTITLE16=Ronnie Hilton - She
TTITLE17=Bing Crosby - Send In The Clowns
TTITLE18=Dick Haymes  - Moonlight Becomes You
TTITLE19=Andy Williams - She'll Never Know
EXTD=
EXTT0=
EXTT1=
EXTT2=
EXTT3=
EXTT4=
EXTT5=
EXTT6=
EXTT7=
EXTT8=
EXTT9=
EXTT10=
EXTT11=
EXTT12=
EXTT13=
EXTT14=
EXTT15=
EXTT16=
EXTT17=
EXTT18=
EXTT19=
PLAYORDER=
